<?xml version="1.0" encoding="UTF-8" standalone="no"?>
<!DOCTYPE svg PUBLIC "-//W3C//DTD SVG 1.1//EN" "http://www.w3.org/Graphics/SVG/1.1/DTD/svg11.dtd">
<svg version="1.1" xmlns="http://www.w3.org/2000/svg" xmlns:xlink="http://www.w3.org/1999/xlink" preserveAspectRatio="xMidYMid meet" viewBox="266.3041080369218 266.76404833731596 86.81875986285877 65.4790214301259" width="86.82" height="65.48"><defs><path d="M307.58 332.24C308.74 332.15 309.62 331.13 309.53 329.97C309.45 328.92 308.62 328.09 307.58 328.01C303.68 328.01 272.48 328.01 268.58 328.01C267.41 327.93 266.4 328.8 266.31 329.97C266.22 331.13 267.1 332.15 268.26 332.24C268.37 332.25 268.48 332.25 268.58 332.24C276.38 332.24 303.68 332.24 307.58 332.24Z" id="b1nmvNpr18"></path><path d="M321.76 303.03C338.42 319.69 347.68 328.95 349.53 330.8C350.35 331.62 351.68 331.62 352.51 330.8C353.33 329.98 353.33 328.64 352.51 327.81C350.65 325.96 341.4 316.7 324.73 300.04C329.87 294.89 332.73 292.03 333.3 291.46C337.33 287.42 337.33 280.89 333.3 276.85C332.6 276.14 326.95 270.49 326.24 269.79C322.2 265.76 315.66 265.76 311.63 269.79C309.64 271.78 293.73 287.73 291.74 289.72C287.71 293.76 287.71 300.3 291.74 304.34C292.44 305.04 298.09 310.69 298.8 311.4C302.84 315.43 309.38 315.43 313.41 311.4C314.53 310.28 317.31 307.49 321.76 303.03ZM306.11 310.17C304.48 310.18 302.92 309.53 301.78 308.38C301.07 307.68 295.42 302.03 294.72 301.32C292.34 298.93 292.34 295.07 294.72 292.67C296.71 290.69 312.67 274.77 314.66 272.78C317.05 270.39 320.92 270.39 323.31 272.78C324.02 273.48 329.67 279.13 330.37 279.84C332.76 282.23 332.76 286.1 330.37 288.49C328.38 290.48 312.42 306.42 310.43 308.41C309.28 309.56 307.73 310.2 306.11 310.2C306.11 310.19 306.11 310.18 306.11 310.17Z" id="e1eU4xR6h5"></path></defs><g><g><g><use xlink:href="#b1nmvNpr18" opacity="1" fill="#000000" fill-opacity="1"></use><g><use xlink:href="#b1nmvNpr18" opacity="1" fill-opacity="0" stroke="#000000" stroke-width="1" stroke-opacity="0"></use></g></g><g><use xlink:href="#e1eU4xR6h5" opacity="1" fill="#000000" fill-opacity="1"></use><g><use xlink:href="#e1eU4xR6h5" opacity="1" fill-opacity="0" stroke="#000000" stroke-width="1" stroke-opacity="0"></use></g></g></g></g></svg>