<svg width="24" height="23" viewBox="0 0 24 23" fill="none" xmlns="http://www.w3.org/2000/svg">
<path d="M22.7894 1.15801C22.0137 0.416449 20.9628 0 19.8672 0C18.7716 0 17.7207 0.416449 16.945 1.15801L2.13883 15.3493C2.03992 15.4439 1.96771 15.5612 1.92898 15.6899L0.0325002 21.9879C-0.00854869 22.124 -0.0107534 22.2682 0.026116 22.4054C0.0629855 22.5426 0.137579 22.6679 0.242123 22.768C0.346666 22.8682 0.477332 22.9397 0.620501 22.975C0.763671 23.0103 0.914102 23.0082 1.05612 22.9688L7.62776 21.1509C7.76201 21.1137 7.88426 21.0445 7.98316 20.9498L22.7899 6.75872C23.5647 6.01605 24 5.00879 24 3.95853C24 2.90826 23.5647 1.901 22.7899 1.15833L22.7894 1.15801ZM7.39816 19.2695L3.89191 15.9087L15.6421 4.64705L19.1481 8.00792L7.39816 19.2695ZM3.12889 17.4176L5.82368 20.0007L2.03576 21.0488L3.12889 17.4176ZM21.6207 5.63857L20.3171 6.88784L16.8107 3.52697L18.1137 2.27817C18.5786 1.83245 19.2093 1.582 19.8669 1.58193C20.5245 1.58185 21.1552 1.83216 21.6203 2.27777C22.0853 2.72339 22.3466 3.32782 22.3467 3.95809C22.3468 4.58836 22.0856 5.19284 21.6207 5.63857Z" fill="black"/>
</svg>
